<svg width="231" height="82" viewBox="0 0 231 82" fill="none" xmlns="http://www.w3.org/2000/svg">
<path d="M102.72 40.4148C102.72 37.8705 103.306 35.5881 104.478 33.5676C105.676 31.5472 107.285 29.9757 109.305 28.8532C111.351 27.7058 113.583 27.1321 116.003 27.1321C118.771 27.1321 121.228 27.818 123.374 29.1899C125.544 30.5369 127.115 32.4576 128.088 34.952H122.962C122.288 33.5801 121.353 32.5574 120.156 31.8839C118.958 31.2104 117.574 30.8737 116.003 30.8737C114.281 30.8737 112.747 31.2603 111.4 32.0336C110.053 32.8068 108.993 33.9168 108.22 35.3636C107.472 36.8104 107.098 38.4941 107.098 40.4148C107.098 42.3355 107.472 44.0192 108.22 45.466C108.993 46.9127 110.053 48.0352 111.4 48.8334C112.747 49.6067 114.281 49.9933 116.003 49.9933C117.574 49.9933 118.958 49.6566 120.156 48.9831C121.353 48.3096 122.288 47.2869 122.962 45.915H128.088C127.115 48.4094 125.544 50.3301 123.374 51.677C121.228 53.024 118.771 53.6975 116.003 53.6975C113.558 53.6975 111.326 53.1363 109.305 52.0138C107.285 50.8664 105.676 49.2824 104.478 47.2619C103.306 45.2415 102.72 42.9591 102.72 40.4148ZM143.744 32.52C145.316 32.52 146.713 32.8567 147.935 33.5302C149.182 34.2037 150.155 35.2015 150.853 36.5235C151.577 37.8455 151.938 39.442 151.938 41.3128V53.473H147.71V41.9488C147.71 40.103 147.249 38.6936 146.326 37.7208C145.403 36.7231 144.143 36.2242 142.547 36.2242C140.951 36.2242 139.678 36.7231 138.731 37.7208C137.808 38.6936 137.346 40.103 137.346 41.9488V53.473H133.081V25.7851H137.346V35.2514C138.07 34.3783 138.98 33.7048 140.078 33.2309C141.2 32.7569 142.422 32.52 143.744 32.52ZM159.549 30.1253C158.776 30.1253 158.128 29.8634 157.604 29.3396C157.08 28.8158 156.818 28.1672 156.818 27.394C156.818 26.6207 157.08 25.9722 157.604 25.4483C158.128 24.9245 158.776 24.6626 159.549 24.6626C160.298 24.6626 160.934 24.9245 161.458 25.4483C161.981 25.9722 162.243 26.6207 162.243 27.394C162.243 28.1672 161.981 28.8158 161.458 29.3396C160.934 29.8634 160.298 30.1253 159.549 30.1253ZM161.645 32.8567V53.473H157.379V32.8567H161.645ZM171.51 35.85C172.134 34.8024 172.957 33.9917 173.98 33.418C175.027 32.8193 176.262 32.52 177.684 32.52V36.9351H176.599C174.928 36.9351 173.656 37.3591 172.782 38.2072C171.934 39.0553 171.51 40.527 171.51 42.6223V53.473H167.245V32.8567H171.51V35.85ZM180.183 43.0713C180.183 41.001 180.607 39.1676 181.455 37.5712C182.328 35.9747 183.501 34.74 184.972 33.867C186.469 32.969 188.115 32.52 189.911 32.52C191.533 32.52 192.942 32.8443 194.139 33.4928C195.361 34.1164 196.334 34.9021 197.058 35.85V32.8567H201.361V53.473H197.058V50.4049C196.334 51.3777 195.349 52.1884 194.102 52.8369C192.855 53.4855 191.433 53.8098 189.836 53.8098C188.065 53.8098 186.444 53.3608 184.972 52.4628C183.501 51.5399 182.328 50.2677 181.455 48.6463C180.607 47 180.183 45.1417 180.183 43.0713ZM197.058 43.1462C197.058 41.7244 196.758 40.4896 196.16 39.442C195.586 38.3943 194.825 37.5961 193.877 37.0473C192.929 36.4986 191.907 36.2242 190.809 36.2242C189.712 36.2242 188.689 36.4986 187.741 37.0473C186.793 37.5712 186.02 38.3569 185.421 39.4045C184.848 40.4273 184.561 41.6495 184.561 43.0713C184.561 44.4931 184.848 45.7404 185.421 46.8129C186.02 47.8855 186.793 48.7087 187.741 49.2824C188.714 49.8312 189.737 50.1056 190.809 50.1056C191.907 50.1056 192.929 49.8312 193.877 49.2824C194.825 48.7336 195.586 47.9354 196.16 46.8878C196.758 45.8152 197.058 44.568 197.058 43.1462ZM215.269 32.52C216.866 32.52 218.275 32.8443 219.497 33.4928C220.745 34.1164 221.717 34.9021 222.416 35.85V32.8567H226.719V53.8098C226.719 55.7055 226.32 57.3892 225.521 58.8609C224.723 60.3576 223.563 61.53 222.042 62.3781C220.545 63.2262 218.749 63.6502 216.654 63.6502C213.86 63.6502 211.54 62.9892 209.694 61.6672C207.849 60.3701 206.801 58.599 206.551 56.3541H210.779C211.104 57.4267 211.79 58.2872 212.837 58.9358C213.91 59.6093 215.182 59.946 216.654 59.946C218.375 59.946 219.759 59.4222 220.807 58.3745C221.88 57.3269 222.416 55.8053 222.416 53.8098V50.3675C221.692 51.3403 220.707 52.1635 219.46 52.8369C218.238 53.4855 216.841 53.8098 215.269 53.8098C213.473 53.8098 211.827 53.3608 210.33 52.4628C208.859 51.5399 207.686 50.2677 206.813 48.6463C205.965 47 205.541 45.1417 205.541 43.0713C205.541 41.001 205.965 39.1676 206.813 37.5712C207.686 35.9747 208.859 34.74 210.33 33.867C211.827 32.969 213.473 32.52 215.269 32.52ZM222.416 43.1462C222.416 41.7244 222.117 40.4896 221.518 39.442C220.944 38.3943 220.183 37.5961 219.235 37.0473C218.288 36.4986 217.265 36.2242 216.167 36.2242C215.07 36.2242 214.047 36.4986 213.099 37.0473C212.151 37.5712 211.378 38.3569 210.779 39.4045C210.206 40.4273 209.919 41.6495 209.919 43.0713C209.919 44.4931 210.206 45.7404 210.779 46.8129C211.378 47.8855 212.151 48.7087 213.099 49.2824C214.072 49.8312 215.095 50.1056 216.167 50.1056C217.265 50.1056 218.288 49.8312 219.235 49.2824C220.183 48.7336 220.944 47.9354 221.518 46.8878C222.117 45.8152 222.416 44.568 222.416 43.1462Z" fill="white"/>
<rect opacity="0.2" width="74.8323" height="74.8323" rx="37.4161" fill="#7288FA"/>
<rect x="32.7393" y="31.1801" width="49.8882" height="49.8882" rx="24.9441" fill="white"/>
</svg>
